<svg width="40" height="40" viewBox="0 0 40 40" fill="none" xmlns="http://www.w3.org/2000/svg">
<path d="M20 0C8.97115 0 0 8.97115 0 20C0 31.0288 8.97115 40 20 40C31.0288 40 40 31.0288 40 20C40 8.97115 31.0288 0 20 0ZM33.226 9.22115C35.6058 12.1298 37.0481 15.8317 37.0817 19.8654C36.5192 19.7452 30.8702 18.601 25.1875 19.3173C25.0673 19.024 24.9471 18.7308 24.8221 18.4375C24.4663 17.6058 24.0865 16.774 23.6875 15.9615C30 13.3798 32.8654 9.71154 33.226 9.22115ZM20 2.94231C24.3413 2.94231 28.3077 4.57212 31.3221 7.24519C31.0144 7.68269 28.4423 11.1394 22.3702 13.4183C19.5721 8.27404 16.4712 4.05288 15.9952 3.41827C17.3077 3.10096 18.649 2.94231 20 2.94231V2.94231ZM12.7356 4.56731C13.1875 5.18269 16.2404 9.41827 19.0673 14.4471C11.0769 16.5673 4.03846 16.5385 3.27404 16.5288C4.38462 11.226 7.95673 6.82212 12.7356 4.56731ZM2.91827 20.024C2.91827 19.851 2.92308 19.6731 2.92788 19.5C3.67308 19.5144 11.9519 19.6202 20.4856 17.0673C20.976 18.024 21.4423 18.9952 21.8702 19.9663C21.6442 20.0288 21.4183 20.0962 21.1971 20.1683C12.3846 23.024 7.69712 30.7885 7.30769 31.4471C4.58173 28.4183 2.91827 24.4135 2.91827 20.024ZM20 37.1058C16.0481 37.1058 12.4087 35.7596 9.51442 33.5C9.82212 32.8702 13.2788 26.1923 22.9135 22.8317L23.024 22.7933C25.4231 29.024 26.4135 34.25 26.6683 35.75C24.5609 36.6507 22.2918 37.1121 20 37.1058V37.1058ZM29.5433 34.1875C29.3702 33.149 28.4615 28.149 26.226 22.0096C31.5817 21.1538 36.2837 22.5577 36.8654 22.7404C36.1058 27.4904 33.3798 31.5962 29.5433 34.1875V34.1875Z" fill="#333333"/>
</svg>
