<svg width="464" height="51" viewBox="0 0 464 51" fill="none" xmlns="http://www.w3.org/2000/svg">
<path d="M0.225098 49.7712V1.4287H22.2053C27.4585 1.4287 32.0895 2.44159 36.0985 4.46738C40.1075 6.44712 43.241 9.23257 45.4989 12.8237C47.7568 16.4149 48.8858 20.6736 48.8858 25.6C48.8858 30.4803 47.7568 34.739 45.4989 38.3762C43.241 41.9674 40.1075 44.7759 36.0985 46.8016C32.0895 48.7814 27.4585 49.7712 22.2053 49.7712H0.225098ZM11.4226 40.5862H21.6524C24.878 40.5862 27.6658 39.9876 30.0159 38.7906C32.4121 37.5475 34.2553 35.798 35.5456 33.542C36.8819 31.286 37.55 28.6387 37.55 25.6C37.55 22.5153 36.8819 19.8679 35.5456 17.658C34.2553 15.402 32.4121 13.6755 30.0159 12.4784C27.6658 11.2353 24.878 10.6138 21.6524 10.6138H11.4226V40.5862Z" fill="#1D1D1D"/>
<path d="M53.7523 49.7712L75.3178 1.4287H86.377L108.012 49.7712H96.2612L78.5665 7.09169H82.9902L65.2262 49.7712H53.7523ZM64.535 39.4121L67.5072 30.9177H92.3905L95.4318 39.4121H64.535Z" fill="#1D1D1D"/>
<path d="M116.488 49.7712V1.4287H125.75L146.348 35.5447H141.44L161.692 1.4287H170.885L171.023 49.7712H160.517L160.448 17.5199H162.383L146.209 44.6608H141.164L124.644 17.5199H126.994V49.7712H116.488Z" fill="#1D1D1D"/>
<path d="M232.353 50.6C228.528 50.6 225.003 50.0015 221.777 48.8044C218.598 47.5613 215.81 45.8118 213.414 43.5558C211.064 41.2998 209.22 38.6525 207.884 35.6138C206.594 32.5751 205.949 29.2372 205.949 25.6C205.949 21.9628 206.594 18.6248 207.884 15.5862C209.22 12.5475 211.087 9.90016 213.483 7.64417C215.879 5.38819 218.69 3.66167 221.915 2.46461C225.141 1.22152 228.689 0.599976 232.56 0.599976C236.845 0.599976 240.693 1.3136 244.103 2.74086C247.559 4.16811 250.462 6.23994 252.812 8.95633L245.624 15.5862C243.873 13.7445 241.96 12.3863 239.887 11.5116C237.813 10.5908 235.555 10.1304 233.113 10.1304C230.763 10.1304 228.62 10.4987 226.685 11.2353C224.749 11.972 223.067 13.0309 221.639 14.4121C220.257 15.7933 219.174 17.4278 218.39 19.3154C217.653 21.2031 217.284 23.298 217.284 25.6C217.284 27.856 217.653 29.9278 218.39 31.8154C219.174 33.7031 220.257 35.3606 221.639 36.7878C223.067 38.169 224.726 39.228 226.616 39.9646C228.551 40.7013 230.671 41.0696 232.975 41.0696C235.187 41.0696 237.329 40.7243 239.403 40.0337C241.523 39.297 243.573 38.077 245.555 36.3735L251.914 44.4536C249.287 46.4333 246.223 47.9526 242.721 49.0116C239.265 50.0705 235.809 50.6 232.353 50.6ZM241.684 43.0033V24.8403H251.914V44.4536L241.684 43.0033Z" fill="#1D1D1D"/>
<path d="M265.771 49.7712V1.4287H286.715C291.046 1.4287 294.779 2.14233 297.912 3.56959C301.046 4.9508 303.465 6.95357 305.17 9.57788C306.875 12.2022 307.727 15.3329 307.727 18.9701C307.727 22.5613 306.875 25.669 305.17 28.2933C303.465 30.8716 301.046 32.8514 297.912 34.2326C294.779 35.6138 291.046 36.3044 286.715 36.3044H271.992L276.969 31.4011V49.7712H265.771ZM296.53 49.7712L284.434 32.2298H296.391L308.626 49.7712H296.53ZM276.969 32.6442L271.992 27.3956H286.093C289.549 27.3956 292.129 26.6589 293.834 25.1856C295.539 23.6663 296.391 21.5945 296.391 18.9701C296.391 16.2998 295.539 14.228 293.834 12.7547C292.129 11.2814 289.549 10.5447 286.093 10.5447H271.992L276.969 5.22705V32.6442Z" fill="#1D1D1D"/>
<path d="M330.354 20.9038H353.647V29.6055H330.354V20.9038ZM331.183 40.7933H357.518V49.7712H320.055V1.4287H356.62V10.4066H331.183V40.7933Z" fill="#1D1D1D"/>
<path d="M369.884 49.7712V1.4287H381.081V40.6552H405.342V49.7712H369.884Z" fill="#1D1D1D"/>
<path d="M408.966 49.7712L430.531 1.4287H441.59L463.225 49.7712H451.475L433.78 7.09169H438.204L420.44 49.7712H408.966ZM419.748 39.4121L422.721 30.9177H447.604L450.645 39.4121H419.748Z" fill="#1D1D1D"/>
</svg>
