<svg width="525" height="46" viewBox="0 0 525 46" fill="none" xmlns="http://www.w3.org/2000/svg">
<path d="M0.225098 44.8541V1.34583H20.0155C24.7453 1.34583 28.915 2.25743 32.5245 4.08064C36.1341 5.86241 38.9554 8.36931 40.9884 11.6014C43.0213 14.8334 44.0378 18.6663 44.0378 23.1C44.0378 27.4922 43.0213 31.3251 40.9884 34.5986C38.9554 37.8306 36.1341 40.3583 32.5245 42.1815C28.915 43.9632 24.7453 44.8541 20.0155 44.8541H0.225098ZM10.307 36.5875H19.5176C22.4219 36.5875 24.932 36.0489 27.048 34.9715C29.2054 33.8527 30.865 32.2782 32.0267 30.2478C33.2299 28.2174 33.8315 25.8348 33.8315 23.1C33.8315 20.3237 33.2299 17.9411 32.0267 15.9522C30.865 13.9218 29.2054 12.3679 27.048 11.2906C24.932 10.1718 22.4219 9.6124 19.5176 9.6124H10.307V36.5875Z" fill="#1D1D1D"/>
<path d="M46.5525 44.8541L65.9695 1.34583H75.9269L95.4062 44.8541H84.8264L68.8945 6.44252H72.8775L56.8833 44.8541H46.5525ZM56.261 35.5309L58.937 27.8859H81.3413L84.0796 35.5309H56.261Z" fill="#1D1D1D"/>
<path d="M101.171 44.8541V1.34583H109.51L128.056 32.0503H123.637L141.872 1.34583H150.149L150.273 44.8541H140.814L140.751 15.8279H142.494L127.931 40.2547H123.388L108.514 15.8279H110.63V44.8541H101.171Z" fill="#1D1D1D"/>
<path d="M161.854 44.8541V1.34583H171.935V44.8541H161.854Z" fill="#1D1D1D"/>
<path d="M177.793 44.8541L197.21 1.34583H207.168L226.647 44.8541H216.067L200.135 6.44252H204.118L188.124 44.8541H177.793ZM187.502 35.5309L190.178 27.8859H212.582L215.32 35.5309H187.502Z" fill="#1D1D1D"/>
<path d="M232.411 44.8541V1.34583H240.751L266.453 32.6718H262.408V1.34583H272.366V44.8541H264.088L238.324 13.5282H242.369V44.8541H232.411Z" fill="#1D1D1D"/>
<path d="M323.822 45.6C320.378 45.6 317.204 45.0613 314.3 43.984C311.437 42.8652 308.927 41.2906 306.77 39.2602C304.654 37.2298 302.994 34.8472 301.791 32.1124C300.629 29.3776 300.049 26.3735 300.049 23.1C300.049 19.8265 300.629 16.8223 301.791 14.0875C302.994 11.3527 304.675 8.97014 306.832 6.93975C308.99 4.90937 311.52 3.3555 314.425 2.27815C317.329 1.15937 320.524 0.599976 324.009 0.599976C327.867 0.599976 331.332 1.24224 334.402 2.52677C337.513 3.8113 340.127 5.67594 342.243 8.12069L335.771 14.0875C334.194 12.4301 332.472 11.2077 330.605 10.4204C328.738 9.59169 326.705 9.17732 324.507 9.17732C322.391 9.17732 320.461 9.50882 318.719 10.1718C316.976 10.8348 315.462 11.7878 314.176 13.0309C312.931 14.274 311.956 15.745 311.251 17.4439C310.587 19.1428 310.255 21.0282 310.255 23.1C310.255 25.1304 310.587 26.995 311.251 28.6939C311.956 30.3928 312.931 31.8845 314.176 33.169C315.462 34.4121 316.955 35.3652 318.657 36.0282C320.399 36.6911 322.308 37.0226 324.382 37.0226C326.374 37.0226 328.303 36.7119 330.17 36.0903C332.078 35.4273 333.925 34.3293 335.709 32.7961L341.434 40.0682C339.069 41.85 336.31 43.2174 333.157 44.1704C330.045 45.1235 326.934 45.6 323.822 45.6ZM332.224 38.763V22.4163H341.434V40.0682L332.224 38.763Z" fill="#1D1D1D"/>
<path d="M352.044 44.8541V1.34583H370.901C374.801 1.34583 378.162 1.9881 380.983 3.27263C383.804 4.51572 385.982 6.31821 387.517 8.68009C389.053 11.042 389.82 13.8596 389.82 17.1331C389.82 20.3652 389.053 23.1621 387.517 25.524C385.982 27.8444 383.804 29.6262 380.983 30.8693C378.162 32.1124 374.801 32.734 370.901 32.734H357.645L362.126 28.321V44.8541H352.044ZM379.738 44.8541L368.847 29.0668H379.614L390.629 44.8541H379.738ZM362.126 29.4398L357.645 24.716H370.341C373.453 24.716 375.776 24.053 377.311 22.727C378.846 21.3596 379.614 19.495 379.614 17.1331C379.614 14.7298 378.846 12.8652 377.311 11.5392C375.776 10.2132 373.453 9.55025 370.341 9.55025H357.645L362.126 4.76434V29.4398Z" fill="#1D1D1D"/>
<path d="M408.325 18.8735H429.298V26.7049H408.325V18.8735ZM409.072 36.774H432.783V44.8541H399.053V1.34583H431.974V9.42594H409.072V36.774Z" fill="#1D1D1D"/>
<path d="M442.05 44.8541V1.34583H452.132V36.6497H473.976V44.8541H442.05Z" fill="#1D1D1D"/>
<path d="M475.371 44.8541L494.788 1.34583H504.746L524.225 44.8541H513.645L497.713 6.44252H501.696L485.702 44.8541H475.371ZM485.08 35.5309L487.756 27.8859H510.16L512.899 35.5309H485.08Z" fill="#1D1D1D"/>
</svg>
