<svg width="249" height="29" viewBox="0 0 249 29" fill="none" xmlns="http://www.w3.org/2000/svg">
<path d="M9.44 3.12H9.84C10.3733 3.12 10.64 3.37333 10.64 3.88V27.28C10.64 27.4933 10.56 27.68 10.4 27.84C10.2667 28 10.08 28.08 9.84 28.08H9.44C9.2 28.08 9 28 8.84 27.84C8.70667 27.68 8.64 27.4933 8.64 27.28V3.88C8.64 3.37333 8.90667 3.12 9.44 3.12ZM0.8 0.079999H18.56C18.8 0.079999 18.9867 0.16 19.12 0.320001C19.28 0.48 19.36 0.666666 19.36 0.88V1.32C19.36 1.8 19.0933 2.04 18.56 2.04H0.8C0.266667 2.04 0 1.8 0 1.32V0.88C0 0.666666 0.08 0.48 0.24 0.320001C0.4 0.16 0.586667 0.079999 0.8 0.079999Z" fill="black"/>
<path d="M27.8 1.04C28.76 0.613332 29.6 0.346666 30.32 0.239999C31.04 0.133332 31.7733 0.079999 32.52 0.079999C33.2933 0.079999 34.0533 0.146666 34.8 0.279999C35.5467 0.386666 36.3867 0.653333 37.32 1.08C38.28 1.50667 39.1067 2.06667 39.8 2.76C40.4933 3.42667 41.08 4.38667 41.56 5.64C42.04 6.86667 42.28 8.29333 42.28 9.92V18.04C42.28 19.72 42.0267 21.2 41.52 22.48C41.04 23.76 40.44 24.7467 39.72 25.44C39.0267 26.1333 38.2133 26.6933 37.28 27.12C35.7867 27.7867 34.2133 28.12 32.56 28.12C30.8267 28.12 29.3467 27.8267 28.12 27.24C26.92 26.6533 25.9733 26.0133 25.28 25.32C24.5867 24.6267 24 23.6533 23.52 22.4C23.04 21.12 22.8 19.6667 22.8 18.04V9.92C22.8 8.24 23.04 6.77333 23.52 5.52C24.0267 4.26667 24.6267 3.30667 25.32 2.64C26.0133 1.97333 26.84 1.44 27.8 1.04ZM36.28 2.84C35.5333 2.49333 34.8667 2.28 34.28 2.2C33.72 2.09333 33.1333 2.04 32.52 2.04C31.9333 2.04 31.3467 2.09333 30.76 2.2C30.1733 2.28 29.4933 2.49333 28.72 2.84C27.9733 3.16 27.32 3.6 26.76 4.16C26.2 4.69333 25.72 5.48 25.32 6.52C24.9467 7.53333 24.76 8.72 24.76 10.08V17.92C24.76 19.28 24.9467 20.48 25.32 21.52C25.72 22.56 26.2 23.3733 26.76 23.96C27.3467 24.52 28.0133 24.9733 28.76 25.32C29.5067 25.6667 30.1733 25.8933 30.76 26C31.3733 26.1067 31.9733 26.16 32.56 26.16C33.1467 26.16 33.7333 26.1067 34.32 26C34.9333 25.8933 35.6133 25.6667 36.36 25.32C37.1067 24.9733 37.76 24.52 38.32 23.96C38.88 23.3733 39.3467 22.56 39.72 21.52C40.12 20.48 40.32 19.28 40.32 17.92V10.08C40.32 8.72 40.12 7.53333 39.72 6.52C39.32 5.48 38.84 4.69333 38.28 4.16C37.72 3.6 37.0533 3.16 36.28 2.84Z" fill="black"/>
<path d="M49.6178 0C50.3378 0 50.8978 0.32 51.2978 0.96C56.4445 9.49333 61.1778 17.6133 65.4978 25.32V0.88C65.4978 0.666666 65.5645 0.48 65.6978 0.320001C65.8578 0.16 66.0578 0.079999 66.2978 0.079999H66.6978C66.9378 0.079999 67.1245 0.16 67.2578 0.320001C67.4178 0.48 67.4978 0.666666 67.4978 0.88V26.6C67.4978 27.1333 67.3378 27.5333 67.0178 27.8C66.7245 28.04 66.2978 28.16 65.7378 28.16C65.1778 28.16 64.7111 27.8667 64.3378 27.28L50.1378 2.92V27.28C50.1378 27.4933 50.0578 27.68 49.8978 27.84C49.7378 28 49.5511 28.08 49.3378 28.08H48.8978C48.6845 28.08 48.4978 28 48.3378 27.84C48.2045 27.68 48.1378 27.4933 48.1378 27.28V1.64C48.1378 0.546667 48.6311 0 49.6178 0Z" fill="black"/>
<path d="M86.7222 0.079999H87.1622C87.4822 0.079999 87.6955 0.186666 87.8022 0.4C87.9089 0.586665 87.9622 0.746665 87.9622 0.88C87.9622 1.01333 87.9222 1.14667 87.8422 1.28V1.24L81.0822 13.56C80.8689 13.88 80.7222 14.08 80.6422 14.16V27.28C80.6422 27.4933 80.5622 27.68 80.4022 27.84C80.2422 28 80.0555 28.08 79.8422 28.08H79.4422C79.2289 28.08 79.0422 28 78.8822 27.84C78.7222 27.68 78.6422 27.4933 78.6422 27.28V14.12C78.5089 13.9867 78.3889 13.8267 78.2822 13.64L71.0022 1.28C70.9222 1.14667 70.8822 1.01333 70.8822 0.88C70.8822 0.746665 70.9355 0.586665 71.0422 0.4C71.1489 0.186666 71.3622 0.079999 71.6822 0.079999H72.1622C72.4289 0.079999 72.6555 0.199999 72.8422 0.44L79.6422 12.12L86.0822 0.320001C86.1889 0.16 86.4022 0.079999 86.7222 0.079999Z" fill="black"/>
<path d="M107.664 6.44C107.664 4.70667 108.371 3.2 109.784 1.92C111.197 0.64 113.117 0 115.544 0C117.997 0 120.051 0.653332 121.704 1.96C123.384 3.24 124.277 5.16 124.384 7.72C124.384 7.93333 124.304 8.13333 124.144 8.32C123.984 8.48 123.797 8.56 123.584 8.56H123.184C122.997 8.56 122.824 8.49333 122.664 8.36C122.504 8.2 122.411 8.01333 122.384 7.8C122.304 5.77333 121.624 4.30667 120.344 3.4C119.064 2.46667 117.531 2 115.744 2C113.824 2 112.331 2.44 111.264 3.32C110.197 4.2 109.664 5.29333 109.664 6.6C109.664 7.88 110.037 8.90667 110.784 9.68C111.824 10.72 113.757 11.7867 116.584 12.88C119.944 14.2133 122.184 15.5467 123.304 16.88C124.157 17.8933 124.584 19.3467 124.584 21.24C124.584 23.1333 123.811 24.76 122.264 26.12C120.744 27.4533 118.571 28.12 115.744 28.12C113.637 28.12 111.651 27.5467 109.784 26.4C108.797 25.7867 107.984 24.9333 107.344 23.84C106.731 22.72 106.397 21.44 106.344 20C106.344 19.44 106.611 19.16 107.144 19.16H107.504C107.984 19.16 108.251 19.4133 108.304 19.92C108.357 21.0933 108.651 22.12 109.184 23C109.717 23.8533 110.384 24.4933 111.184 24.92C112.731 25.7467 114.424 26.16 116.264 26.16C118.131 26.16 119.651 25.68 120.824 24.72C122.024 23.7333 122.624 22.5067 122.624 21.04C122.624 19.5467 122.144 18.4 121.184 17.6C120.411 16.96 119.571 16.4133 118.664 15.96C117.491 15.4 115.651 14.6133 113.144 13.6C111.224 12.7467 109.824 11.7733 108.944 10.68C108.091 9.56 107.664 8.14667 107.664 6.44Z" fill="black"/>
<path d="M131.09 0C131.81 0 132.37 0.32 132.77 0.96C137.916 9.49333 142.65 17.6133 146.97 25.32V0.88C146.97 0.666666 147.036 0.48 147.17 0.320001C147.33 0.16 147.53 0.079999 147.77 0.079999H148.17C148.41 0.079999 148.596 0.16 148.73 0.320001C148.89 0.48 148.97 0.666666 148.97 0.88V26.6C148.97 27.1333 148.81 27.5333 148.49 27.8C148.196 28.04 147.77 28.16 147.21 28.16C146.65 28.16 146.183 27.8667 145.81 27.28L131.61 2.92V27.28C131.61 27.4933 131.53 27.68 131.37 27.84C131.21 28 131.023 28.08 130.81 28.08H130.37C130.156 28.08 129.97 28 129.81 27.84C129.676 27.68 129.61 27.4933 129.61 27.28V1.64C129.61 0.546667 130.103 0 131.09 0Z" fill="black"/>
<path d="M171.714 0.079999H172.114C172.327 0.079999 172.514 0.16 172.674 0.320001C172.834 0.48 172.914 0.666666 172.914 0.88V18.04C172.914 19.96 172.594 21.6267 171.954 23.04C171.314 24.4267 170.487 25.4667 169.474 26.16C167.607 27.4667 165.701 28.12 163.754 28.12H163.274C161.327 28.12 159.394 27.4667 157.474 26.16C156.461 25.4667 155.634 24.4267 154.994 23.04C154.381 21.6267 154.074 19.96 154.074 18.04V0.88C154.074 0.666666 154.141 0.48 154.274 0.320001C154.434 0.16 154.634 0.079999 154.874 0.079999H155.274C155.514 0.079999 155.701 0.16 155.834 0.320001C155.994 0.48 156.074 0.666666 156.074 0.88V18.04C156.074 19.6133 156.327 20.9733 156.834 22.12C157.341 23.24 158.007 24.08 158.834 24.64C160.274 25.6 161.781 26.1067 163.354 26.16H163.714C165.234 26.1067 166.727 25.5867 168.194 24.6C168.994 24.0667 169.647 23.24 170.154 22.12C170.661 20.9733 170.914 19.6133 170.914 18.04V0.88C170.914 0.666666 170.981 0.48 171.114 0.320001C171.274 0.16 171.474 0.079999 171.714 0.079999Z" fill="black"/>
<path d="M179.935 0.079999H193.255C193.495 0.079999 193.682 0.16 193.815 0.320001C193.975 0.48 194.055 0.666666 194.055 0.88V1.24C194.055 1.77333 193.788 2.04 193.255 2.04H180.415V27.28C180.415 27.4933 180.335 27.68 180.175 27.84C180.042 28 179.855 28.08 179.615 28.08H179.215C178.975 28.08 178.775 28 178.615 27.84C178.482 27.68 178.415 27.4933 178.415 27.28V1.68C178.415 1.17333 178.508 0.786667 178.695 0.52C178.882 0.226666 179.295 0.079999 179.935 0.079999ZM182.015 12.56H191.015C191.228 12.56 191.415 12.64 191.575 12.8C191.735 12.96 191.815 13.1467 191.815 13.36V13.72C191.815 13.96 191.735 14.16 191.575 14.32C191.415 14.4533 191.228 14.52 191.015 14.52H182.015C181.508 14.52 181.255 14.2533 181.255 13.72V13.36C181.255 13.1467 181.322 12.96 181.455 12.8C181.615 12.64 181.802 12.56 182.015 12.56Z" fill="black"/>
<path d="M214.91 0.079999H215.35C215.59 0.079999 215.79 0.16 215.95 0.320001C216.19 0.586667 216.217 0.893334 216.03 1.24L209.03 13.8L216.55 26.92C216.63 27.08 216.67 27.2267 216.67 27.36C216.67 27.84 216.403 28.08 215.87 28.08H215.43C215.137 28.08 214.937 28 214.83 27.84L207.95 15.8L201.87 27C201.39 27.8 200.857 28.2 200.27 28.2C199.257 28.2 198.75 27.6667 198.75 26.6V0.88C198.75 0.666666 198.817 0.48 198.95 0.320001C199.11 0.16 199.31 0.079999 199.55 0.079999H199.95C200.19 0.079999 200.377 0.16 200.51 0.320001C200.67 0.48 200.75 0.666666 200.75 0.88V24.88L208.67 10.4L214.35 0.320001C214.457 0.16 214.643 0.079999 214.91 0.079999Z" fill="black"/>
<path d="M222.282 0.079999H222.642C222.855 0.079999 223.042 0.16 223.202 0.320001C223.362 0.48 223.442 0.666666 223.442 0.88V27.28C223.442 27.4933 223.362 27.68 223.202 27.84C223.042 28 222.855 28.08 222.642 28.08H222.282C222.042 28.08 221.842 28 221.682 27.84C221.549 27.68 221.482 27.4933 221.482 27.28V0.88C221.482 0.666666 221.549 0.48 221.682 0.320001C221.842 0.16 222.042 0.079999 222.282 0.079999Z" fill="black"/>
<path d="M231.09 0C231.81 0 232.37 0.32 232.77 0.96C237.916 9.49333 242.65 17.6133 246.97 25.32V0.88C246.97 0.666666 247.036 0.48 247.17 0.320001C247.33 0.16 247.53 0.079999 247.77 0.079999H248.17C248.41 0.079999 248.596 0.16 248.73 0.320001C248.89 0.48 248.97 0.666666 248.97 0.88V26.6C248.97 27.1333 248.81 27.5333 248.49 27.8C248.196 28.04 247.77 28.16 247.21 28.16C246.65 28.16 246.183 27.8667 245.81 27.28L231.61 2.92V27.28C231.61 27.4933 231.53 27.68 231.37 27.84C231.21 28 231.023 28.08 230.81 28.08H230.37C230.156 28.08 229.97 28 229.81 27.84C229.676 27.68 229.61 27.4933 229.61 27.28V1.64C229.61 0.546667 230.103 0 231.09 0Z" fill="black"/>
</svg>
